<svg width="31" height="31" viewBox="0 0 31 31" fill="none" xmlns="http://www.w3.org/2000/svg">
<circle cx="15.5" cy="15.5" r="14.5" stroke="#E2E8F0" stroke-width="2"/>
<path d="M13.5 18.9801V18.8182C13.5114 17.7614 13.6165 16.9205 13.8153 16.2955C14.0199 15.6705 14.3097 15.1648 14.6847 14.7784C15.0597 14.392 15.5114 14.0398 16.0398 13.7216C16.3807 13.5057 16.6875 13.2642 16.9602 12.9972C17.233 12.7301 17.4489 12.4233 17.608 12.0767C17.767 11.7301 17.8466 11.3466 17.8466 10.9261C17.8466 10.4205 17.7273 9.98295 17.4886 9.61364C17.25 9.24432 16.9318 8.96023 16.5341 8.76136C16.142 8.55682 15.7045 8.45454 15.2216 8.45454C14.7841 8.45454 14.3665 8.54545 13.9688 8.72727C13.571 8.90909 13.2415 9.19318 12.9801 9.57954C12.7188 9.96023 12.5682 10.4517 12.5284 11.054H9.9375C9.97727 10.0312 10.2358 9.16761 10.7131 8.46307C11.1903 7.75284 11.821 7.21591 12.6051 6.85227C13.3949 6.48864 14.267 6.30682 15.2216 6.30682C16.267 6.30682 17.1818 6.50284 17.9659 6.89489C18.75 7.28125 19.358 7.82386 19.7898 8.52273C20.2273 9.21591 20.446 10.0256 20.446 10.9517C20.446 11.5881 20.3466 12.1619 20.1477 12.6733C19.9489 13.179 19.6648 13.6307 19.2955 14.0284C18.9318 14.4261 18.4943 14.7784 17.983 15.0852C17.5 15.3864 17.108 15.6989 16.8068 16.0227C16.5114 16.3466 16.2955 16.7301 16.1591 17.1733C16.0227 17.6165 15.9489 18.1648 15.9375 18.8182V18.9801H13.5ZM14.7869 24.1619C14.321 24.1619 13.9205 23.9972 13.5852 23.6676C13.25 23.3324 13.0824 22.929 13.0824 22.4574C13.0824 21.9915 13.25 21.5937 13.5852 21.2642C13.9205 20.929 14.321 20.7614 14.7869 20.7614C15.2472 20.7614 15.6449 20.929 15.9801 21.2642C16.321 21.5937 16.4915 21.9915 16.4915 22.4574C16.4915 22.7699 16.4119 23.0568 16.2528 23.3182C16.0994 23.5739 15.8949 23.7784 15.6392 23.9318C15.3835 24.0852 15.0994 24.1619 14.7869 24.1619Z" fill="white"/>
</svg>
